<?xml version="1.0" standalone="no"?>
<!DOCTYPE svg PUBLIC "-//W3C//DTD SVG 20010904//EN"
 "http://www.w3.org/TR/2001/REC-SVG-20010904/DTD/svg10.dtd">
<svg version="1.0" xmlns="http://www.w3.org/2000/svg"
 width="2389.000000pt" height="2011.000000pt" viewBox="0 0 2389.000000 2011.000000"
 preserveAspectRatio="xMidYMid meet">

<g transform="translate(0.000000,2011.000000) scale(0.100000,-0.100000)"
fill="#000000" stroke="none">
<path d="M1530 16774 l0 -1507 53 7 c28 3 69 6 90 6 l37 0 0 1410 0 1410 1526
0 1526 0 -5 23 c-4 12 -9 52 -13 90 l-7 67 -1603 0 -1604 0 0 -1506z"/>
<path d="M19203 18258 c4 -13 9 -53 13 -90 l7 -68 1593 0 1594 0 0 -1525 0
-1525 75 0 75 0 0 1615 0 1615 -1681 0 -1681 0 5 -22z"/>
<path d="M3136 17375 c-189 -48 -355 -183 -441 -360 -52 -107 -68 -189 -63
-325 7 -186 63 -315 193 -445 80 -80 151 -125 257 -163 67 -24 86 -27 218 -27
132 0 151 3 218 27 106 38 177 83 257 163 80 80 125 151 163 257 24 67 27 86
27 218 0 132 -3 151 -27 218 -38 106 -83 177 -163 257 -81 80 -152 125 -257
162 -61 22 -94 27 -198 29 -87 3 -143 -1 -184 -11z"/>
<path d="M7333 16578 c-42 -11 -63 -46 -63 -105 l0 -51 -37 5 c-45 6 -93 -11
-93 -32 0 -8 -8 -15 -18 -15 -20 0 -55 -34 -65 -62 -3 -9 3 -28 13 -41 19 -24
19 -25 -1 -43 -13 -12 -19 -27 -16 -42 3 -13 -2 -36 -9 -51 -8 -14 -14 -41
-14 -59 0 -25 -5 -35 -24 -42 -32 -12 -35 -25 -38 -165 -3 -118 -2 -121 27
-170 17 -27 37 -63 45 -79 24 -46 111 -130 160 -155 25 -13 57 -39 70 -58 14
-19 35 -47 46 -61 14 -17 28 -60 38 -111 8 -46 23 -93 33 -105 10 -12 36 -42
59 -67 60 -66 154 -272 178 -390 6 -32 15 -61 19 -65 4 -4 7 -18 7 -31 0 -54
121 -381 157 -424 7 -8 13 -24 13 -35 0 -11 4 -24 9 -30 5 -5 26 -58 47 -119
20 -60 43 -122 51 -138 7 -15 13 -33 12 -40 -3 -15 11 -68 21 -82 4 -5 20 -43
35 -83 52 -140 172 -335 274 -447 128 -140 160 -186 161 -231 0 -11 13 -33 30
-49 16 -15 35 -44 41 -64 15 -45 75 -141 89 -141 5 0 10 -4 10 -10 0 -5 13
-31 29 -57 65 -109 115 -214 147 -312 19 -57 34 -112 34 -122 0 -11 5 -19 10
-19 6 0 10 -8 10 -17 0 -35 84 -282 143 -422 34 -80 85 -189 114 -244 29 -54
53 -102 53 -107 0 -4 7 -13 15 -20 8 -7 38 -51 66 -99 28 -47 78 -122 111
-166 32 -44 79 -109 102 -145 24 -36 67 -93 97 -126 98 -112 128 -150 177
-222 27 -40 67 -92 90 -116 22 -24 51 -65 63 -92 37 -81 104 -176 163 -232 30
-28 57 -52 61 -52 17 0 114 -79 140 -114 42 -56 75 -116 75 -136 0 -10 7 -23
15 -30 8 -7 15 -18 15 -24 0 -7 9 -30 19 -52 11 -22 23 -52 26 -67 4 -15 11
-27 16 -27 5 0 9 -7 9 -15 0 -8 15 -45 34 -82 18 -38 39 -86 46 -108 7 -22 18
-47 25 -55 12 -15 24 -88 50 -325 8 -71 28 -183 45 -248 16 -65 34 -168 39
-230 5 -62 19 -141 30 -177 11 -36 21 -73 21 -83 0 -9 4 -25 9 -35 11 -21 44
-112 62 -172 10 -32 12 -83 9 -180 -4 -150 -4 -217 3 -530 4 -176 9 -229 26
-294 12 -44 21 -96 21 -116 0 -20 4 -40 9 -46 11 -11 59 -166 66 -214 3 -19
11 -60 16 -90 6 -30 15 -77 20 -105 12 -61 37 -184 50 -244 20 -89 22 -310 5
-431 -10 -71 -15 -165 -14 -245 2 -71 2 -280 0 -463 -1 -211 1 -340 8 -352 5
-10 10 -49 10 -87 0 -37 5 -87 10 -110 5 -23 11 -88 12 -144 1 -94 -1 -103
-19 -110 -11 -4 -33 -20 -49 -36 -33 -34 -139 -93 -165 -93 -10 0 -31 -14 -48
-31 -17 -17 -35 -28 -39 -25 -5 3 -18 -2 -30 -10 -42 -29 -18 -103 34 -104 10
0 28 -7 38 -15 11 -8 30 -15 42 -15 12 0 38 -7 57 -15 20 -8 47 -15 60 -15 13
0 37 -11 53 -25 16 -14 34 -25 39 -25 6 0 15 -12 21 -27 10 -27 21 -31 206
-76 108 -27 208 -47 224 -45 28 3 29 5 32 61 3 56 4 57 45 78 27 13 69 22 115
25 40 2 82 9 94 15 13 7 44 9 84 5 69 -7 89 3 100 52 4 15 13 36 20 47 21 30
17 98 -6 128 -11 14 -20 35 -20 46 0 12 -7 33 -16 46 -14 21 -24 25 -68 25
-29 0 -70 9 -95 20 -29 13 -65 20 -107 20 -52 0 -72 5 -103 25 l-38 26 -7 152
c-4 83 -14 187 -22 232 -24 137 -19 213 26 395 6 25 16 54 22 64 12 22 13 252
2 503 -4 109 -3 167 4 175 6 7 12 49 14 93 2 44 14 115 26 159 22 76 23 90 19
430 -4 356 -7 388 -47 556 l-23 94 26 50 c15 28 27 55 27 60 0 4 11 17 24 27
13 10 33 39 45 64 11 24 43 69 70 99 27 29 53 61 57 69 21 37 34 22 38 -44 2
-36 8 -74 14 -85 6 -10 20 -50 32 -88 11 -38 32 -88 46 -111 23 -41 116 -135
133 -135 4 0 18 -12 32 -26 13 -14 47 -37 76 -50 28 -14 78 -51 110 -84 94
-94 142 -90 178 17 27 82 40 98 88 113 23 7 60 21 82 30 47 21 135 105 135
128 0 22 26 95 49 141 63 120 111 326 103 434 -2 20 3 51 12 67 17 35 7 78
-29 121 -12 15 -28 42 -35 60 -8 19 -16 36 -20 39 -3 3 -18 25 -34 50 -16 25
-40 57 -54 72 l-25 28 54 23 c30 13 82 31 117 41 58 16 69 16 145 2 111 -21
133 -20 240 9 163 43 252 101 302 196 28 54 43 70 111 118 37 27 50 30 150 36
60 4 152 16 204 27 52 11 127 26 165 34 148 29 179 37 195 44 8 4 42 16 75 26
33 10 92 38 130 63 103 68 73 60 353 90 51 5 107 14 125 20 17 6 64 20 102 32
39 12 93 32 122 45 28 13 57 24 63 24 5 0 18 4 28 10 17 9 77 34 117 50 56 21
185 85 185 92 0 4 6 8 14 8 8 0 30 9 49 20 49 29 89 39 191 50 48 6 102 17
120 25 17 8 67 26 110 40 43 14 100 35 125 46 54 25 65 30 151 63 36 13 83 26
105 29 22 3 60 10 85 17 25 7 88 18 140 25 139 18 197 43 302 131 50 42 103
81 117 87 14 6 46 25 71 42 25 17 67 44 94 59 26 16 57 35 67 44 21 18 25 62
9 93 -7 13 -7 19 0 19 18 0 11 56 -9 74 -15 14 -43 18 -135 21 -79 2 -122 7
-133 17 -36 29 -175 9 -283 -40 -66 -31 -154 -58 -250 -77 -47 -9 -98 -23
-115 -30 -16 -6 -46 -18 -65 -26 -38 -14 -110 -62 -179 -118 l-44 -36 -186 -7
c-198 -7 -303 -18 -416 -43 -38 -9 -107 -22 -152 -30 -44 -8 -93 -19 -108 -25
-14 -5 -36 -10 -48 -10 -22 0 -131 -41 -144 -54 -3 -3 -12 -6 -19 -6 -7 0 -42
-14 -77 -30 -36 -16 -74 -30 -85 -30 -11 0 -44 -12 -73 -26 -41 -21 -74 -28
-150 -34 -68 -4 -105 -12 -125 -25 -31 -20 -183 -52 -294 -62 -41 -3 -81 -10
-88 -16 -8 -7 -57 -6 -150 4 -75 7 -189 13 -252 12 -142 -2 -398 -42 -495 -78
-38 -15 -96 -34 -127 -43 -56 -16 -58 -15 -85 4 -16 12 -41 28 -58 37 -16 8
-55 38 -85 66 -30 28 -61 51 -68 51 -7 0 -15 6 -18 14 -5 14 -87 68 -174 114
-113 61 -196 102 -207 102 -7 0 -13 8 -13 19 0 10 -25 45 -56 77 -62 65 -121
151 -180 262 -21 39 -68 107 -105 149 -37 42 -92 117 -121 167 -33 57 -85 124
-139 181 -47 49 -106 121 -129 159 -40 64 -42 70 -32 101 10 27 9 40 -9 86
-11 30 -25 62 -30 71 -5 10 -9 26 -9 37 0 10 -7 24 -15 31 -8 7 -12 16 -9 21
3 5 -2 23 -10 41 -9 17 -16 41 -16 53 0 13 -7 39 -15 59 -8 20 -12 36 -8 36 4
0 2 5 -5 12 -7 7 -12 20 -12 30 0 10 -4 26 -10 36 -5 9 -15 33 -23 52 -8 19
-26 61 -41 93 -14 32 -26 62 -26 67 0 5 -31 74 -69 152 -37 79 -73 154 -79
168 -37 82 -225 384 -255 409 -10 7 -17 17 -17 22 0 5 -39 59 -87 121 -48 62
-107 140 -132 173 -25 33 -57 71 -71 85 -14 14 -43 48 -65 75 -68 86 -218 229
-294 280 -40 28 -83 57 -94 65 -12 8 -43 31 -68 52 -26 21 -49 38 -52 38 -3 0
-57 51 -121 113 -76 73 -121 126 -132 152 -9 22 -24 49 -34 60 -11 11 -26 37
-35 58 -9 21 -23 41 -31 44 -9 3 -24 24 -34 46 -17 38 -37 55 -91 77 -19 8
-28 23 -38 59 -16 61 -40 99 -52 80 -7 -11 -9 -11 -9 2 0 9 -8 27 -18 40 -10
13 -26 52 -35 86 -9 35 -31 85 -47 111 -17 27 -30 54 -30 61 0 6 -4 11 -10 11
-15 0 -100 91 -100 106 0 8 -3 13 -7 13 -29 -5 -44 8 -74 56 -19 30 -39 55
-46 55 -7 0 -31 25 -55 54 -24 30 -50 57 -58 60 -8 4 -33 24 -55 46 -22 22
-46 46 -53 53 -8 6 -33 32 -55 56 -23 24 -66 68 -94 97 -29 29 -53 57 -53 63
0 14 -315 331 -329 331 -6 0 -11 7 -11 15 0 8 -8 15 -17 15 -10 0 -36 18 -58
41 -22 22 -51 51 -63 64 -40 41 -85 118 -93 160 -16 84 -33 131 -57 158 -14
15 -31 27 -38 27 -7 0 -28 15 -47 33 -25 24 -38 48 -50 99 -9 37 -28 88 -42
114 -15 29 -25 63 -25 90 0 35 -39 169 -82 277 -11 27 -156 146 -182 148 -6 1
-28 3 -49 5 -21 1 -44 7 -50 12 -7 5 -23 12 -37 15 -81 18 -115 29 -121 39 -8
13 -116 17 -156 6z m456 -1123 c29 -19 56 -35 61 -35 4 0 36 -26 70 -57 34
-32 69 -62 78 -67 41 -24 105 -103 153 -191 52 -94 108 -198 116 -215 4 -8 21
-37 38 -65 17 -27 37 -62 44 -77 8 -16 18 -28 22 -28 4 0 10 -12 14 -27 3 -16
17 -42 31 -60 13 -17 24 -34 24 -37 0 -3 37 -61 83 -129 73 -108 97 -147 101
-167 1 -3 7 -14 13 -25 5 -11 13 -38 17 -60 20 -118 115 -241 371 -475 64 -59
152 -159 170 -193 7 -15 17 -48 21 -74 4 -26 21 -72 39 -102 18 -31 36 -67 40
-80 9 -29 75 -135 87 -139 4 -2 8 -8 8 -14 0 -5 24 -44 53 -86 68 -100 194
-309 251 -417 12 -22 23 -42 26 -45 23 -20 178 -436 167 -447 -3 -2 -30 17
-60 44 -29 26 -63 55 -73 64 -30 25 -121 129 -163 189 -22 30 -49 67 -60 82
-12 14 -40 57 -64 95 -39 63 -79 123 -142 213 -55 78 -80 116 -90 135 -27 49
-41 70 -58 89 -11 12 -33 41 -50 66 -17 25 -44 56 -59 68 -15 13 -28 30 -28
38 0 7 -10 18 -21 25 -12 6 -44 33 -72 61 -28 27 -61 54 -74 59 -13 5 -26 17
-29 26 -3 10 -16 41 -29 68 -14 28 -36 88 -50 135 -15 47 -30 95 -36 108 -5
13 -9 31 -9 42 0 10 -8 35 -19 57 -53 108 -64 131 -85 166 -13 21 -45 60 -72
86 -81 78 -122 129 -144 176 -11 25 -24 45 -28 45 -4 0 -20 23 -35 51 -16 28
-35 53 -42 55 -8 3 -18 18 -24 32 -12 31 -22 47 -73 119 -21 29 -38 57 -38 63
0 6 -7 13 -15 16 -8 3 -28 28 -46 55 -17 27 -36 53 -43 57 -11 7 -66 87 -66
96 0 3 -11 17 -25 32 -14 15 -25 33 -25 40 0 7 -11 25 -24 41 -13 15 -33 48
-46 73 -12 25 -29 49 -36 53 -9 5 -14 26 -14 56 0 27 -7 62 -15 77 -8 16 -15
41 -15 56 0 15 -4 30 -10 33 -5 3 -10 15 -10 26 0 25 -28 81 -46 92 -22 13
-17 87 5 87 4 0 30 -16 60 -35z m4002 -11264 l24 -19 -27 -11 c-21 -8 -38 -7
-68 4 -61 22 -68 28 -40 36 46 13 88 9 111 -10z"/>
<path d="M22473 5313 l-63 -4 0 -1179 0 -1180 -949 0 -950 0 -11 -57 c-6 -32
-16 -74 -21 -93 -5 -19 -9 -41 -9 -47 0 -10 216 -13 1045 -13 l1045 0 0 1290
c0 1026 -3 1290 -12 1288 -7 -1 -41 -3 -75 -5z"/>
<path d="M1530 3965 l0 -1225 1563 0 1562 0 16 53 c9 28 26 76 37 105 l22 52
-1510 0 -1510 0 0 1105 c0 608 -1 1105 -2 1105 -2 1 -39 7 -83 15 -44 8 -83
15 -87 15 -5 0 -8 -551 -8 -1225z"/>
<path d="M9821 2913 c-6 -21 -17 -60 -26 -88 -8 -27 -15 -58 -15 -67 0 -17 69
-18 1309 -18 l1309 0 32 93 c17 50 34 98 37 105 4 9 -263 12 -1316 12 l-1320
0 -10 -37z"/>
</g>
</svg>
